<?xml version="1.0" encoding="utf-8"?>
<!-- Generator: Adobe Illustrator 17.0.0, SVG Export Plug-In . SVG Version: 6.00 Build 0)  -->
<!DOCTYPE svg PUBLIC "-//W3C//DTD SVG 1.0//EN" "http://www.w3.org/TR/2001/REC-SVG-20010904/DTD/svg10.dtd">
<svg version="1.0" id="Capa_1" xmlns="http://www.w3.org/2000/svg" xmlns:xlink="http://www.w3.org/1999/xlink" x="0px" y="0px"
	 width="363.248px" height="360px" viewBox="0 0 363.248 360" enable-background="new 0 0 363.248 360" xml:space="preserve">
<g>
	<path fill="#EB6159" d="M61.957,158v49h-51v-49H61.957 M66.957,153h-61v59h61V153L66.957,153z"/>
	<rect x="79.957" y="108" fill="#EB6159" width="60" height="104"/>
	<rect x="296.957" y="132" fill="#EB6159" width="61" height="80"/>
	<path fill="#EB6159" d="M281.957,60v147h-55V60H281.957 M285.957,55h-64v157h64V55L285.957,55z"/>
	<rect x="151.957" y="4" fill="#E51937" width="61" height="208"/>
	<g>
		<path fill="#6A6669" d="M67.324,299.756h-48.67c0,6.925,2.182,12.381,6.547,16.369c4.364,3.989,10.161,5.983,17.392,5.983
			c2.645,0,5.135-0.253,7.472-0.764c2.335-0.51,5.4-1.447,9.192-2.807l3.968,8.729l-4.365,1.851
			c-5.555,2.205-11.419,3.306-17.59,3.306c-10.58,0-19.111-3.327-25.591-9.985c-6.48-6.656-9.721-15.451-9.721-26.385
			c0-10.845,2.976-19.727,8.927-26.651c5.951-6.92,13.6-10.381,22.946-10.381c9.169,0,16.4,3.23,21.69,9.685
			c5.29,6.459,7.935,15.259,7.935,26.406L67.324,299.756z M37.767,269.074c-5.311,0-9.646,1.863-13.009,5.589
			c-3.362,3.728-5.398,8.918-6.105,15.572h36.767c0-6.654-1.593-11.844-4.78-15.572C47.455,270.937,43.165,269.074,37.767,269.074z"
			/>
		<path fill="#6A6669" d="M128.425,270.263v-42.322h12.168v103.425h-11.506v-11.771c-5.026,8.729-12.564,13.093-22.616,13.093
			c-8.906,0-15.982-3.244-21.227-9.737c-5.247-6.493-7.869-15.216-7.869-26.168c0-11.218,2.747-20.294,8.241-27.229
			c5.495-6.934,12.719-10.401,21.671-10.401C116.148,259.154,123.195,262.857,128.425,270.263z M108.851,269.734
			c-5.819,0-10.405,2.351-13.755,7.045c-3.352,4.696-5.026,11.122-5.026,19.274c0,8.154,1.674,14.579,5.026,19.274
			c3.35,4.697,7.978,7.044,13.887,7.044c5.906,0,10.624-2.391,14.151-7.177c3.526-4.786,5.29-11.165,5.29-19.141
			c0-7.975-1.764-14.354-5.29-19.14C119.607,272.128,114.846,269.734,108.851,269.734z"/>
		<path fill="#6A6669" d="M215.58,299.756H166.91c0,6.925,2.182,12.381,6.547,16.369c4.364,3.989,10.161,5.983,17.392,5.983
			c2.645,0,5.135-0.253,7.472-0.764c2.335-0.51,5.4-1.447,9.192-2.807l3.967,8.729l-4.364,1.851
			c-5.555,2.205-11.419,3.306-17.59,3.306c-10.58,0-19.111-3.327-25.591-9.985c-6.48-6.656-9.721-15.451-9.721-26.385
			c0-10.845,2.976-19.727,8.927-26.651c5.951-6.92,13.6-10.381,22.946-10.381c9.169,0,16.4,3.23,21.691,9.685
			c5.29,6.459,7.935,15.259,7.935,26.406L215.58,299.756z M186.023,269.074c-5.311,0-9.646,1.863-13.009,5.589
			c-3.362,3.728-5.398,8.918-6.105,15.572h36.767c0-6.654-1.593-11.844-4.779-15.572C195.71,270.937,191.42,269.074,186.023,269.074
			z"/>
		<path fill="#6A6669" d="M228.937,358.082v-97.605h11.638v11.505c5.026-8.551,12.519-12.829,22.483-12.829
			c8.815,0,15.914,3.312,21.294,9.938c5.376,6.625,8.068,15.457,8.068,26.498c0,10.953-2.734,19.874-8.2,26.764
			c-5.467,6.891-12.61,10.335-21.425,10.335c-9.347,0-16.488-3.968-21.425-11.903v37.296H228.937z M260.879,269.734
			c-6.018,0-10.839,2.376-14.466,7.125c-3.629,4.749-5.442,11.038-5.442,18.863c0,7.916,1.813,14.294,5.442,19.129
			c3.627,4.839,8.448,7.256,14.466,7.256c5.838,0,10.481-2.352,13.932-7.057c3.45-4.706,5.176-11.06,5.176-19.064
			c0-7.915-1.748-14.269-5.242-19.064C271.25,272.132,266.628,269.734,260.879,269.734z"/>
		<path fill="#6A6669" d="M346.908,287.457l0.132-3.151c0-4.903-1.472-8.733-4.416-11.492c-2.942-2.758-6.962-4.138-12.058-4.138
			c-2.373,0-4.877,0.353-7.512,1.058c-2.637,0.707-5.974,1.984-10.017,3.836l-4.364-8.729c7.658-3.79,15.181-5.688,22.568-5.688
			c8.617,0,15.321,2.182,20.115,6.547c4.792,4.364,7.189,10.471,7.189,18.317v47.215h-11.242l0.266-9.654
			c-5.909,7.407-13.403,11.109-22.484,11.109c-6.877,0-12.477-1.938-16.796-5.819c-4.322-3.878-6.481-8.994-6.481-15.342
			c0-7.758,3.173-13.708,9.523-17.855c3.438-2.203,7.273-3.79,11.505-4.761c4.232-0.969,9.742-1.454,16.533-1.454H346.908z
			 M347.039,305.273v-9.616l-4.647-0.132c-18.769,0-28.152,5.075-28.152,15.224c0,3.74,1.284,6.722,3.85,8.948
			c2.567,2.225,5.931,3.337,10.093,3.337c5.31,0,9.782-1.69,13.411-5.074C345.224,314.578,347.039,310.348,347.039,305.273z"/>
	</g>
</g>
</svg>
